<svg width="326" height="171" viewBox="0 0 326 171" fill="none" xmlns="http://www.w3.org/2000/svg">
  <path d="M0.769745 2.28215C11.5143 12.0585 33.6231 28.7463 54.2913 38.5363L112.54 56.1937L42.4675 49.2224L41.4211 49.3676C60.291 65.6062 81.4783 76.7598 104.131 82.9596L179.857 93.8127L110.557 98.5719C137.915 112.564 174.905 121.673 204.941 125.427L242.012 127.792L197.243 135.375L197.138 135.416C232.591 153.812 292.185 168.731 325.784 170.015C322.793 163.273 318.899 156.224 314.337 149.256C300.391 134.043 280.986 131.335 261.202 130.8C262.399 130.375 263.606 129.977 264.821 129.607C276.643 126.013 288.096 125.578 299.297 129.498C287.154 115.698 272.925 104.039 258.827 98.4092L259.035 98.3657C242.036 91.3708 223.236 86.1879 203.027 82.3719C228.772 79.7012 262.213 86.0035 283.863 93.2239L283.928 93.2095C258.755 74.6918 221.197 57.269 190.215 47.7995L120.942 35.5447L197.638 33.238C171.765 26.3642 148.469 22.5314 123.517 21.2017L59.2259 20.4483L124.759 7.62969C91.5488 -0.486555 34.3182 0.294021 0.770782 2.28183L0.769745 2.28215Z" fill="url(#paint0_linear_58_4)"/>
  <defs>
    <linearGradient id="paint0_linear_58_4" x1="125.325" y1="-36.3171" x2="201.228" y2="208.614" gradientUnits="userSpaceOnUse">
      <stop stop-color="#9D68E4"/>
      <stop offset="1" stop-color="#8545D8"/>
    </linearGradient>
  </defs>
</svg>
